# xmcd CD database file
# Copyright (C) 1993-1998 Ti Kan
# 
# Track frame offsets:
#     150
#     27227
#     43140
#     68715
#     84622
#     110630
#     124212
#     139192
#     157285
#     174992
#     192515
#     208902
#     227600
#     243807
# 
# Disc length: 3410 seconds
# 
# Revision: 1
# Processed by: cddbd v1.4b41PL1 Copyright (c) Steve Scherf et al.
# Submitted via: DiscPlay 4.0.4
# 
DISCID=cb0d500e
DTITLE=Various Artist - The Worlds Greatest Love Songs - Disc 2
DYEAR=1900
DGENRE=
TTITLE0=Sweet Surrender          ( Wet Wet Wet )
TTITLE1=I Wanna Wake Up With You      ( Boris Gardiner )
TTITLE2=Youre The Best Thing           ( Style Council )
TTITLE3=If You Dont Know Me By Now    ( Harold Melvin and The Blue Notes )
TTITLE4=Im Not In Love             ( 10CC )
TTITLE5=When will I see You Again          ( The Three Degrees )
TTITLE6=Without You              ( Harry Nilsson )
TTITLE7=Your Song         ( Elton John )
TTITLE8=This Guys In Love You          ( Herb Albert )
TTITLE9=Lost In Love              ( Air Supply )
TTITLE10=More Than I Can Say                ( Leo Sayer )
TTITLE11=Do That To Me One More Time                    ( Captain and Tennil
TTITLE11=le )
TTITLE12=Loving You               ( Minnie Ripperton )
TTITLE13=You are So Beautiful                     ( Joe Cocker )
EXTD=
EXTT0=
EXTT1=
EXTT2=
EXTT3=
EXTT4=
EXTT5=
EXTT6=
EXTT7=
EXTT8=
EXTT9=
EXTT10=
EXTT11=
EXTT12=
EXTT13=
PLAYORDER=
